<?xml version="1.0" encoding="UTF-8"?>
<svg id="_레이어_1" xmlns="http://www.w3.org/2000/svg" version="1.1" viewBox="0 0 1280 542.51">
  <!-- Generator: Adobe Illustrator 30.3.0, SVG Export Plug-In . SVG Version: 2.1.3 Build 182)  -->
  <defs>
    <style>
      .st0 {
        fill: #fff;
      }
    </style>
  </defs>
  <g>
    <path class="st0" d="M196.72,210.81V3.49h58.23v207.32h-58.23ZM235.72,210.81v-49.5h48.33c10.87,0,20.29-1.98,28.24-5.97,7.95-3.98,14.08-10.04,18.35-18.2s6.41-18.25,6.41-30.28-2.18-22.03-6.54-29.98-10.48-13.93-18.35-17.91c-7.86-3.98-17.23-5.97-28.1-5.97h-51.24V3.49h51.24c16.31,0,31.3,2.44,44.99,7.28,13.69,4.86,25.57,11.84,35.66,20.97,10.1,9.13,17.91,20.05,23.44,32.75,5.53,12.72,8.3,26.94,8.3,42.67s-2.77,29.95-8.3,42.67c-5.53,12.72-13.34,23.64-23.44,32.75-10.1,9.13-21.94,16.11-35.52,20.97-13.6,4.86-28.44,7.28-44.55,7.28h-48.93v-.02Z"/>
    <path class="st0" d="M416.83,210.81V67.55h57.07v143.26h-57.07,0ZM473.9,133.36l-26.5-23.59c7.37-15.52,15.96-26.94,25.77-34.22s22.08-10.92,36.84-10.92c6.6,0,12.28.77,17.03,2.33,4.75,1.56,8.6,3.79,11.51,6.69l-32.04,45.41c-1.36-1.56-3.35-2.86-5.97-3.92s-5.68-1.59-9.16-1.59c-5.83,0-10.19,1.7-13.1,5.09s-4.36,8.3-4.36,14.7v.02h-.02Z"/>
    <path class="st0" d="M617.17,214.29c-16.7,0-31.36-3.15-43.97-9.46-12.63-6.3-22.47-15.14-29.56-26.5s-10.63-24.41-10.63-39.16,3.45-27.47,10.34-38.73c6.89-11.25,16.35-20.14,28.39-26.65s25.62-9.75,40.76-9.75,28.15,3.06,39.6,9.16c11.45,6.12,20.43,14.61,26.94,25.47,6.51,10.87,9.75,23.29,9.75,37.28,0,2.91-.15,5.97-.44,9.16-.29,3.21-.92,6.95-1.89,11.22l-129.28.88v-34.93l108.02-.88-26.5,15.43c0-7.75-.92-14.13-2.77-19.08-1.85-4.95-4.62-8.69-8.3-11.22s-8.34-3.79-13.98-3.79-10.87,1.45-15.14,4.36-7.53,7.09-9.75,12.52c-2.24,5.44-3.35,12.04-3.35,19.79s1.21,14.61,3.65,19.94c2.42,5.33,5.97,9.37,10.63,12.08s10.48,4.07,17.47,4.07,12.76-1.12,17.91-3.35c5.13-2.24,9.84-5.77,14.13-10.63l28.54,28.24c-7.18,8.16-15.82,14.28-25.91,18.35-10.1,4.07-21.64,6.12-34.66,6.12l.02.05h-.02Z"/>
    <path class="st0" d="M765.65,213.7c-13.4,0-25.24-3.21-35.52-9.6-10.3-6.41-18.35-15.19-24.17-26.35-5.83-11.16-8.74-24.03-8.74-38.58s2.91-27.47,8.74-38.73,13.87-20.03,24.17-26.35c10.28-6.3,22.14-9.46,35.52-9.46,8.34,0,16.05,1.41,23.15,4.22,7.09,2.82,12.99,6.74,17.76,11.78,4.75,5.06,7.81,10.87,9.16,17.47v82.11c-1.36,6.6-4.42,12.43-9.16,17.47-4.76,5.06-10.68,8.98-17.76,11.78-7.09,2.8-14.81,4.22-23.15,4.22v.04-.02ZM778.46,163.63c7.18,0,12.96-2.27,17.32-6.84,4.36-4.56,6.54-10.43,6.54-17.61,0-4.86-.97-9.07-2.91-12.66-1.94-3.59-4.71-6.45-8.3-8.6-3.59-2.14-7.72-3.21-12.37-3.21s-8.78,1.06-12.37,3.21-6.45,5.04-8.6,8.74c-2.14,3.68-3.21,7.86-3.21,12.52s1.03,8.83,3.06,12.52c2.03,3.68,4.89,6.6,8.6,8.74,3.68,2.14,7.75,3.21,12.22,3.21l.02-.02h0ZM800.6,210.81v-38.43l7.86-34.93-7.86-34.66v-35.22h55.6v143.26h-55.6v-.02Z"/>
    <path class="st0" d="M883.57,210.81V67.55h57.07v143.26h-57.07ZM971.79,210.81v-82.11c0-4.86-1.45-8.69-4.36-11.51-2.91-2.8-6.6-4.22-11.07-4.22-3.12,0-5.86.62-8.3,1.89s-4.27,3.06-5.53,5.39-1.89,5.15-1.89,8.45l-22.12-8.16c0-11.66,2.57-21.64,7.72-29.98,5.15-8.34,12.08-14.75,20.82-19.23,8.74-4.45,18.64-6.69,29.71-6.69,9.69,0,18.49,2.33,26.35,6.98s14.13,11.11,18.79,19.37c4.66,8.25,6.98,18.02,6.98,29.27v90.55h-57.07l-.02-.02v.02ZM1060.02,210.81v-82.11c0-4.86-1.45-8.69-4.36-11.51-2.91-2.8-6.6-4.22-11.07-4.22-3.12,0-5.88.62-8.3,1.89-2.44,1.26-4.27,3.06-5.53,5.39s-1.89,5.15-1.89,8.45l-33.48.29c0-13.4,2.66-24.89,8.01-34.51,5.33-9.6,12.76-16.99,22.27-22.12,9.51-5.15,20.38-7.72,32.6-7.72,11.45,0,21.59,2.44,30.42,7.28,8.83,4.86,15.76,11.84,20.82,20.97,5.04,9.13,7.57,20.09,7.57,32.9v85.02h-57.07.02-.01Z"/>
  </g>
  <path class="st0" d="M111.99,485.38c-15.93,0-30.72-2.68-44.41-8.01-13.69-5.33-25.68-12.85-35.96-22.56-10.3-9.69-18.29-21.11-24.03-34.22-5.72-13.1-8.6-27.33-8.6-42.67s2.86-29.8,8.6-42.79c5.72-12.99,13.69-24.27,23.88-33.78s22.08-16.93,35.66-22.27c13.58-5.33,28.33-8.01,44.26-8.01s30.86,2.53,44.26,7.57,25.03,12.04,34.95,20.97l-38.73,39.02c-4.66-5.04-10.34-9.02-17.03-11.93s-14.52-4.36-23.44-4.36c-7.77,0-14.9,1.26-21.41,3.79s-12.08,6.21-16.75,11.07c-4.66,4.86-8.3,10.72-10.92,17.61s-3.92,14.61-3.92,23.15,1.3,16.55,3.92,23.44c2.62,6.89,6.27,12.77,10.92,17.61,4.66,4.86,10.24,8.6,16.75,11.22s13.64,3.92,21.41,3.92c8.74,0,16.55-1.36,23.44-4.07,6.89-2.71,12.85-6.69,17.91-11.93l39.02,39.02c-10.3,8.93-21.85,15.87-34.66,20.82s-27.86,7.42-45.12,7.42l-.02-.04h.02Z"/>
  <path class="st0" d="M265.71,484.8c-13.4,0-25.24-3.21-35.52-9.6-10.3-6.41-18.35-15.19-24.17-26.35-5.83-11.16-8.74-24.03-8.74-38.58s2.91-27.47,8.74-38.73c5.83-11.25,13.87-20.03,24.17-26.35,10.28-6.3,22.14-9.46,35.52-9.46,8.34,0,16.05,1.41,23.15,4.22,7.09,2.82,12.99,6.74,17.76,11.78,4.75,5.06,7.81,10.87,9.16,17.47v82.11c-1.36,6.6-4.42,12.43-9.16,17.47-4.77,5.06-10.68,8.98-17.76,11.78-7.09,2.8-14.81,4.22-23.15,4.22v.04-.02ZM278.52,434.73c7.18,0,12.96-2.27,17.32-6.84s6.54-10.43,6.54-17.61c0-4.86-.97-9.07-2.91-12.66s-4.71-6.45-8.3-8.6-7.72-3.21-12.37-3.21-8.78,1.06-12.37,3.21-6.45,5.04-8.6,8.74c-2.14,3.68-3.21,7.86-3.21,12.52s1.03,8.83,3.06,12.52c2.03,3.68,4.89,6.6,8.6,8.74,3.68,2.14,7.75,3.21,12.22,3.21l.02-.02h0ZM300.66,481.88v-38.43l7.86-34.93-7.86-34.66v-35.22h55.6v143.26h-55.6v-.02h0Z"/>
  <path class="st0" d="M383.63,543.04v-204.4h57.07v35.22l-9.31,34.66,7.86,34.93v99.57h-55.62v.02ZM471.86,484.8c-8.54,0-16.6-1.41-24.17-4.22-7.57-2.8-13.98-6.74-19.23-11.78-5.24-5.04-8.63-10.87-10.19-17.47v-79.19c1.56-6.6,4.95-12.66,10.19-18.2s11.66-9.95,19.23-13.25,15.61-4.95,24.17-4.95c14.17,0,26.54,3.15,37.13,9.46,10.57,6.3,18.82,15.1,24.74,26.35s8.89,24.17,8.89,38.73-2.97,27.42-8.89,38.58c-5.92,11.16-14.17,19.94-24.74,26.35s-22.96,9.6-37.13,9.6v-.02h0ZM461.1,434.73c4.66,0,8.83-1.06,12.52-3.21,3.68-2.13,6.54-5.04,8.6-8.74,2.03-3.68,3.06-7.86,3.06-12.52s-1.03-9.07-3.06-12.66-4.86-6.45-8.45-8.6c-3.59-2.14-7.72-3.21-12.37-3.21s-8.78,1.03-12.37,3.06-6.41,4.91-8.45,8.6-3.06,7.95-3.06,12.81.97,8.83,2.91,12.52,4.71,6.6,8.3,8.74c3.59,2.14,7.72,3.21,12.37,3.21h0Z"/>
  <path class="st0" d="M547.86,385.23v-46.59h118.21v46.59h-118.21ZM578.43,481.88v-202.07h57.07v202.07h-57.07Z"/>
  <path class="st0" d="M749.93,485.38c-13.98,0-26.35-2.71-37.13-8.16-10.78-5.42-19.26-12.99-25.47-22.71-6.21-9.69-9.31-20.76-9.31-33.19v-82.69h57.07v83.28c0,2.91.62,5.53,1.89,7.86,1.26,2.33,3.01,4.12,5.24,5.39s4.8,1.89,7.72,1.89c4.07,0,7.51-1.41,10.34-4.22s4.22-6.45,4.22-10.92v-83.28h57.07v82.69c0,12.63-3.06,23.73-9.16,33.34-6.12,9.6-14.55,17.14-25.33,22.56s-23.15,8.16-37.13,8.16h-.02Z"/>
  <path class="st0" d="M845.14,481.88v-143.26h57.07v143.26h-57.07ZM902.21,404.43l-26.5-23.59c7.37-15.52,15.96-26.94,25.77-34.22,9.8-7.28,22.08-10.92,36.84-10.92,6.6,0,12.28.77,17.03,2.33s8.6,3.79,11.51,6.69l-32.04,45.41c-1.36-1.56-3.35-2.86-5.97-3.92s-5.68-1.59-9.16-1.59c-5.83,0-10.19,1.7-13.1,5.09-2.91,3.39-4.36,8.3-4.36,14.7v.02h-.02Z"/>
  <path class="st0" d="M1045.46,485.38c-16.7,0-31.36-3.15-43.97-9.46-12.63-6.3-22.47-15.14-29.56-26.5s-10.63-24.41-10.63-39.16,3.45-27.47,10.34-38.73c6.89-11.25,16.35-20.14,28.39-26.65,12.04-6.51,25.62-9.75,40.76-9.75s28.15,3.06,39.6,9.16c11.45,6.12,20.43,14.61,26.94,25.47,6.51,10.87,9.75,23.29,9.75,37.28,0,2.91-.15,5.97-.44,9.16-.29,3.21-.92,6.95-1.89,11.22l-129.28.88v-34.93l108.02-.88-26.5,15.43c0-7.75-.92-14.13-2.77-19.08-1.85-4.95-4.62-8.69-8.3-11.22s-8.34-3.79-13.98-3.79-10.87,1.45-15.14,4.36c-4.27,2.91-7.53,7.09-9.75,12.52-2.24,5.44-3.35,12.04-3.35,19.79s1.21,14.61,3.65,19.94c2.42,5.33,5.97,9.37,10.63,12.08s10.48,4.07,17.47,4.07,12.76-1.12,17.91-3.35c5.13-2.24,9.84-5.77,14.13-10.63l28.54,28.24c-7.18,8.16-15.82,14.28-25.91,18.35-10.1,4.07-21.64,6.12-34.66,6.12l.02.05h-.02Z"/>
  <path class="st0" d="M1226.2,485.38c-10.43,0-19.67-2.41-27.73-7.23s-14.43-11.36-19.07-19.66c-4.67-8.29-6.99-17.59-6.99-27.84s2.29-19.23,6.88-27.37c4.58-8.13,10.9-14.57,18.95-19.31,8.06-4.74,17.3-7.12,27.73-7.12s19.94,2.41,28.08,7.23c8.13,4.81,14.5,11.31,19.07,19.43,4.58,8.14,6.88,17.26,6.88,27.37s-2.3,19.31-6.88,27.61c-4.58,8.3-10.9,14.86-18.95,19.66-8.06,4.81-17.38,7.23-27.97,7.23ZM1225.97,472.59c8.21,0,15.41-1.8,21.57-5.44,6.16-3.62,10.97-8.63,14.45-15.04,3.48-6.4,5.2-13.54,5.2-21.45s-1.75-14.69-5.2-20.85c-3.48-6.16-8.29-11.1-14.45-14.81-6.16-3.72-13.35-5.56-21.57-5.56s-15.12,1.82-21.21,5.44c-6.09,3.64-10.81,8.57-14.22,14.81-3.4,6.23-5.09,13.23-5.09,20.97s1.68,15.05,5.09,21.45c3.4,6.4,8.17,11.4,14.33,15.04,6.16,3.64,13.18,5.44,21.09,5.44h0ZM1207.96,455.53v-50.7h14.22v50.7h-14.22ZM1219.32,435.39v-9.95h8.77c1.9,0,3.36-.47,4.38-1.42,1.01-.96,1.54-2.21,1.54-3.79s-.53-2.8-1.54-3.69c-1.03-.86-2.5-1.3-4.38-1.3h-8.77v-10.43h10.9c5.05,0,9.28,1.43,12.68,4.26s5.1,6.56,5.1,11.14-1.7,8.06-5.1,10.9c-3.4,2.83-7.86,4.26-13.39,4.26h-10.18ZM1235.21,455.53l-13.73-21.57,12.79-2.83,17.06,24.4h-16.12,0Z"/>
</svg>