<?xml version="1.0" encoding="UTF-8"?>
<svg id="_레이어_1" xmlns="http://www.w3.org/2000/svg" version="1.1" viewBox="0 0 709.14 364.7">
  <!-- Generator: Adobe Illustrator 30.3.0, SVG Export Plug-In . SVG Version: 2.1.3 Build 182)  -->
  <g>
    <path d="M108.91,179.53v-113.12h31.77v113.12h-31.77ZM130.2,179.53v-27.01h26.37c5.93,0,11.07-1.08,15.41-3.26,4.34-2.17,7.68-5.48,10.01-9.93,2.33-4.45,3.5-9.96,3.5-16.52s-1.19-12.02-3.57-16.36c-2.38-4.34-5.72-7.6-10.01-9.77-4.29-2.17-9.4-3.26-15.33-3.26h-27.96v-27.01h27.96c8.9,0,17.08,1.33,24.55,3.97,7.47,2.65,13.95,6.46,19.46,11.44,5.51,4.98,9.77,10.94,12.79,17.87,3.02,6.94,4.53,14.7,4.53,23.28s-1.51,16.34-4.53,23.28-7.28,12.9-12.79,17.87c-5.51,4.98-11.97,8.79-19.38,11.44-7.42,2.65-15.52,3.97-24.31,3.97h-26.7Z"/>
    <path d="M229.02,179.53v-78.17h31.14v78.17h-31.14ZM260.16,137.27l-14.46-12.87c4.02-8.47,8.71-14.7,14.06-18.67s12.05-5.96,20.1-5.96c3.6,0,6.7.42,9.29,1.27,2.59.85,4.69,2.07,6.28,3.65l-17.48,24.78c-.74-.85-1.83-1.56-3.26-2.14-1.43-.58-3.1-.87-5-.87-3.18,0-5.56.93-7.15,2.78s-2.38,4.53-2.38,8.02h0Z"/>
    <path d="M338.33,181.43c-9.11,0-17.11-1.72-23.99-5.16-6.89-3.44-12.26-8.26-16.13-14.46-3.87-6.2-5.8-13.32-5.8-21.37s1.88-14.99,5.64-21.13,8.92-10.99,15.49-14.54c6.57-3.55,13.98-5.32,22.24-5.32s15.36,1.67,21.61,5c6.25,3.34,11.15,7.97,14.7,13.9s5.32,12.71,5.32,20.34c0,1.59-.08,3.26-.24,5-.16,1.75-.5,3.79-1.03,6.12l-70.54.48v-19.06l58.94-.48-14.46,8.42c0-4.23-.5-7.71-1.51-10.41s-2.52-4.74-4.53-6.12-4.55-2.07-7.63-2.07-5.93.79-8.26,2.38-4.11,3.87-5.32,6.83c-1.22,2.97-1.83,6.57-1.83,10.8s.66,7.97,1.99,10.88c1.32,2.91,3.26,5.11,5.8,6.59s5.72,2.22,9.53,2.22,6.96-.61,9.77-1.83c2.8-1.22,5.37-3.15,7.71-5.8l15.57,15.41c-3.92,4.45-8.63,7.79-14.14,10.01s-11.81,3.34-18.91,3.34v.03Z"/>
    <path d="M419.35,181.11c-7.31,0-13.77-1.75-19.38-5.24-5.62-3.5-10.01-8.29-13.19-14.38s-4.77-13.11-4.77-21.05,1.59-14.99,4.77-21.13,7.57-10.93,13.19-14.38c5.61-3.44,12.08-5.16,19.38-5.16,4.55,0,8.76.77,12.63,2.3,3.87,1.54,7.09,3.68,9.69,6.43,2.59,2.76,4.26,5.93,5,9.53v44.8c-.74,3.6-2.41,6.78-5,9.53-2.6,2.76-5.83,4.9-9.69,6.43-3.87,1.53-8.08,2.3-12.63,2.3v.02ZM426.34,153.79c3.92,0,7.07-1.24,9.45-3.73,2.38-2.49,3.57-5.69,3.57-9.61,0-2.65-.53-4.95-1.59-6.91s-2.57-3.52-4.53-4.69-4.21-1.75-6.75-1.75-4.79.58-6.75,1.75-3.52,2.75-4.69,4.77c-1.17,2.01-1.75,4.29-1.75,6.83s.56,4.82,1.67,6.83c1.11,2.01,2.67,3.6,4.69,4.77,2.01,1.17,4.23,1.75,6.67,1.75h.01ZM438.42,179.53v-20.97l4.29-19.06-4.29-18.91v-19.22h30.34v78.17h-30.34Z"/>
    <path d="M483.69,179.53v-78.17h31.14v78.17h-31.14ZM531.83,179.53v-44.8c0-2.65-.79-4.74-2.38-6.28-1.59-1.53-3.6-2.3-6.04-2.3-1.7,0-3.2.34-4.53,1.03s-2.33,1.67-3.02,2.94-1.03,2.81-1.03,4.61l-12.07-4.45c0-6.36,1.4-11.81,4.21-16.36s6.59-8.05,11.36-10.49c4.77-2.43,10.17-3.65,16.21-3.65,5.29,0,10.09,1.27,14.38,3.81s7.71,6.06,10.25,10.57c2.54,4.5,3.81,9.83,3.81,15.97v49.41h-31.15ZM579.97,179.53v-44.8c0-2.65-.79-4.74-2.38-6.28-1.59-1.53-3.6-2.3-6.04-2.3-1.7,0-3.21.34-4.53,1.03-1.33.69-2.33,1.67-3.02,2.94s-1.03,2.81-1.03,4.61l-18.27.16c0-7.31,1.45-13.58,4.37-18.83,2.91-5.24,6.96-9.27,12.15-12.07,5.19-2.81,11.12-4.21,17.79-4.21,6.25,0,11.78,1.33,16.6,3.97,4.82,2.65,8.6,6.46,11.36,11.44,2.75,4.98,4.13,10.96,4.13,17.95v46.39h-31.14.01Z"/>
    <path d="M66.5,329.35c-8.69,0-16.76-1.46-24.23-4.37s-14.01-7.01-19.62-12.31c-5.62-5.29-9.98-11.52-13.11-18.67-3.12-7.15-4.69-14.91-4.69-23.28s1.56-16.26,4.69-23.35c3.12-7.09,7.47-13.24,13.03-18.43s12.05-9.24,19.46-12.15c7.41-2.91,15.46-4.37,24.15-4.37s16.84,1.38,24.15,4.13,13.66,6.57,19.07,11.44l-21.13,21.29c-2.54-2.75-5.64-4.92-9.29-6.51s-7.92-2.38-12.79-2.38c-4.24,0-8.13.69-11.68,2.07s-6.59,3.39-9.14,6.04c-2.54,2.65-4.53,5.85-5.96,9.61s-2.14,7.97-2.14,12.63.71,9.03,2.14,12.79c1.43,3.76,3.42,6.97,5.96,9.61,2.54,2.65,5.59,4.69,9.14,6.12,3.55,1.43,7.44,2.14,11.68,2.14,4.77,0,9.03-.74,12.79-2.22s7.01-3.65,9.77-6.51l21.29,21.29c-5.62,4.87-11.92,8.66-18.91,11.36s-15.2,4.05-24.62,4.05v-.02Z"/>
    <path d="M150.38,329.03c-7.31,0-13.77-1.75-19.38-5.24-5.62-3.5-10.01-8.29-13.19-14.38s-4.77-13.11-4.77-21.05,1.59-14.99,4.77-21.13,7.57-10.93,13.19-14.38c5.61-3.44,12.08-5.16,19.38-5.16,4.55,0,8.76.77,12.63,2.3,3.87,1.54,7.09,3.68,9.69,6.43,2.59,2.76,4.26,5.93,5,9.53v44.8c-.74,3.6-2.41,6.78-5,9.53-2.6,2.76-5.83,4.9-9.69,6.43-3.87,1.53-8.08,2.3-12.63,2.3v.02ZM157.37,301.71c3.92,0,7.07-1.24,9.45-3.73s3.57-5.69,3.57-9.61c0-2.65-.53-4.95-1.59-6.91-1.06-1.96-2.57-3.52-4.53-4.69s-4.21-1.75-6.75-1.75-4.79.58-6.75,1.75-3.52,2.75-4.69,4.77c-1.17,2.01-1.75,4.29-1.75,6.83s.56,4.82,1.67,6.83c1.11,2.01,2.67,3.6,4.69,4.77,2.01,1.17,4.23,1.75,6.67,1.75h0ZM169.45,327.44v-20.97l4.29-19.06-4.29-18.91v-19.22h30.34v78.17h-30.34Z"/>
    <path d="M214.72,360.81v-111.53h31.14v19.22l-5.08,18.91,4.29,19.06v54.33h-30.35ZM262.86,329.03c-4.66,0-9.06-.77-13.19-2.3s-7.63-3.68-10.49-6.43-4.71-5.93-5.56-9.53v-43.21c.85-3.6,2.7-6.91,5.56-9.93s6.36-5.43,10.49-7.23,8.52-2.7,13.19-2.7c7.73,0,14.48,1.72,20.26,5.16,5.77,3.44,10.27,8.24,13.5,14.38s4.85,13.19,4.85,21.13-1.62,14.96-4.85,21.05c-3.23,6.09-7.73,10.88-13.5,14.38s-12.53,5.24-20.26,5.24h0ZM256.98,301.71c2.54,0,4.82-.58,6.83-1.75,2.01-1.16,3.57-2.75,4.69-4.77,1.11-2.01,1.67-4.29,1.67-6.83s-.56-4.95-1.67-6.91c-1.11-1.96-2.65-3.52-4.61-4.69-1.96-1.17-4.21-1.75-6.75-1.75s-4.79.56-6.75,1.67-3.5,2.68-4.61,4.69-1.67,4.34-1.67,6.99.53,4.82,1.59,6.83,2.57,3.6,4.53,4.77c1.96,1.17,4.21,1.75,6.75,1.75h0Z"/>
    <path d="M304.33,274.7v-25.42h64.5v25.42h-64.5ZM321.01,327.44v-110.26h31.14v110.26h-31.14Z"/>
    <path d="M414.59,329.35c-7.63,0-14.38-1.48-20.26-4.45-5.88-2.96-10.51-7.09-13.9-12.39-3.39-5.29-5.08-11.33-5.08-18.11v-45.12h31.14v45.44c0,1.59.34,3.02,1.03,4.29.69,1.27,1.64,2.25,2.86,2.94s2.62,1.03,4.21,1.03c2.22,0,4.1-.77,5.64-2.3s2.3-3.52,2.3-5.96v-45.44h31.14v45.12c0,6.89-1.67,12.95-5,18.19-3.34,5.24-7.94,9.35-13.82,12.31s-12.63,4.45-20.26,4.45Z"/>
    <path d="M466.54,327.44v-78.17h31.14v78.17h-31.14ZM497.68,285.18l-14.46-12.87c4.02-8.47,8.71-14.7,14.06-18.67s12.05-5.96,20.1-5.96c3.6,0,6.7.42,9.29,1.27,2.59.85,4.69,2.07,6.28,3.65l-17.48,24.78c-.74-.85-1.83-1.56-3.26-2.14s-3.1-.87-5-.87c-3.18,0-5.56.93-7.15,2.78-1.59,1.85-2.38,4.53-2.38,8.02h0Z"/>
    <path d="M575.84,329.35c-9.11,0-17.11-1.72-23.99-5.16-6.89-3.44-12.26-8.26-16.13-14.46s-5.8-13.32-5.8-21.37,1.88-14.99,5.64-21.13,8.92-10.99,15.49-14.54,13.98-5.32,22.24-5.32,15.36,1.67,21.61,5c6.25,3.34,11.15,7.97,14.7,13.9,3.55,5.93,5.32,12.71,5.32,20.34,0,1.59-.08,3.26-.24,5-.16,1.75-.5,3.79-1.03,6.12l-70.54.48v-19.06l58.94-.48-14.46,8.42c0-4.23-.5-7.71-1.51-10.41-1.01-2.7-2.52-4.74-4.53-6.12s-4.55-2.07-7.63-2.07-5.93.79-8.26,2.38-4.11,3.87-5.32,6.83c-1.22,2.97-1.83,6.57-1.83,10.8s.66,7.97,1.99,10.88c1.32,2.91,3.26,5.11,5.8,6.59,2.54,1.48,5.72,2.22,9.53,2.22s6.96-.61,9.77-1.83c2.8-1.22,5.37-3.15,7.71-5.8l15.57,15.41c-3.92,4.45-8.63,7.79-14.14,10.01-5.51,2.22-11.81,3.34-18.91,3.34v.03Z"/>
  </g>
  <path d="M667.32,76.66c-6.99,0-13.19-1.62-18.59-4.85s-9.67-7.62-12.79-13.18c-3.13-5.56-4.69-11.79-4.69-18.67s1.53-12.89,4.61-18.35c3.07-5.45,7.31-9.77,12.71-12.95,5.4-3.18,11.6-4.77,18.59-4.77s13.37,1.62,18.83,4.85c5.45,3.23,9.72,7.58,12.79,13.03,3.07,5.46,4.61,11.57,4.61,18.35s-1.54,12.95-4.61,18.51-7.31,9.96-12.71,13.18c-5.4,3.23-11.65,4.85-18.75,4.85ZM667.16,68.08c5.51,0,10.33-1.21,14.46-3.65,4.13-2.43,7.36-5.79,9.69-10.08,2.33-4.29,3.49-9.08,3.49-14.38s-1.17-9.85-3.49-13.98c-2.33-4.13-5.56-7.44-9.69-9.93s-8.95-3.73-14.46-3.73-10.14,1.22-14.22,3.65c-4.08,2.44-7.25,5.75-9.53,9.93s-3.41,8.87-3.41,14.06,1.13,10.09,3.41,14.38c2.28,4.29,5.48,7.65,9.61,10.08,4.13,2.44,8.84,3.65,14.14,3.65h0ZM655.08,56.64V22.64h9.53v34h-9.53ZM662.71,43.14v-6.67h5.88c1.27,0,2.25-.32,2.94-.95.68-.64,1.03-1.48,1.03-2.54s-.35-1.88-1.03-2.47c-.69-.58-1.67-.87-2.94-.87h-5.88v-6.99h7.31c3.39,0,6.22.96,8.5,2.86s3.42,4.4,3.42,7.47-1.14,5.4-3.42,7.31c-2.28,1.9-5.27,2.86-8.98,2.86h-6.83ZM673.35,56.64l-9.21-14.46,8.58-1.9,11.44,16.36h-10.81Z"/>
</svg>